<svg xmlns="http://www.w3.org/2000/svg" viewBox="0 0 866.97 427.91"><defs><style>.cls-1{font-size:178.11px;fill:#ff1d25;font-family:BebasNeue-Regular, Bebas Neue;}.cls-2,.cls-3,.cls-4{fill:#fff;}.cls-2{letter-spacing:0em;}.cls-4{font-size:280.4px;}.cls-5{letter-spacing:0em;}.cls-6{letter-spacing:0.01em;}.cls-7{fill:#ed1c24;}.cls-8{fill:#070707;opacity:0.2;}.cls-9{fill:#7c1118;}.cls-10{fill:#c1272d;}</style></defs><title>LogoNew</title><g id="Text_v2" data-name="Text v2"><text class="cls-1" transform="translate(254.22 151.4)">Red<tspan class="cls-2" x="208.75" y="0"> </tspan><tspan class="cls-3" x="237.47" y="0">Ghost </tspan><tspan class="cls-4"><tspan class="cls-5" x="0" y="220.44">Gam</tspan><tspan class="cls-6" x="376.44" y="220.44">e</tspan><tspan x="479.95" y="220.44">s</tspan></tspan></text></g><g id="LOGO"><g id="body"><polygon class="cls-7" points="24.7 278.33 0 185.96 8.06 83.92 61.22 21.63 103.65 7.66 167.56 17.33 216.43 79.63 231.46 179.51 201.93 288.53 116 378.75 90.22 378.75 76.26 363.18 91.83 366.4 100.43 357.81 24.7 278.33"/><path class="cls-3" d="M582,399.16" transform="translate(-459 -356.05)"/></g><g id="body_side_light"><polygon class="cls-8" points="168.09 17.33 208.91 83.92 218.57 178.98 193.33 288.53 116 378.75 202.46 288.53 232 179.51 216.96 79.63 168.09 17.33"/><polyline class="cls-8" points="23.09 278.87 106.87 354.05 102.57 358.35 90.22 366.94 98.81 358.35"/></g><g id="body_reflection"><polyline class="cls-3" points="58.54 46.87 51.02 46.33 47.26 51.16"/><polygon class="cls-3" points="55.85 39.88 65.52 39.88 74.65 31.29 62.3 30.22 55.85 39.88"/></g><g id="Eyehole"><polygon class="cls-3" points="51.2 160.86 90.72 192.94 147.44 192.94 183.52 164.87 179.51 99.57 146.29 56.6 87.86 47.44 48.33 104.72 51.2 160.86"/></g><g id="Eye"><polygon points="98.74 105.87 88.43 137.38 130.82 161.43 152.02 133.94 137.12 98.42 98.74 105.87"/></g><g id="Eye_refletion"><polygon class="cls-3" points="103.9 125.92 104.47 132.22 107.34 125.92 103.9 125.92"/><polygon class="cls-3" points="106.19 119.04 105.62 112.17 117.07 112.17 106.19 119.04"/></g><g id="Eyebrow"><polygon class="cls-9" points="85 29.68 108.48 45.15 131.4 49.16 153.74 39.42 164.62 52.02 133.69 66.92 107.91 66.92 75.83 48.59 85 29.68"/><polygon class="cls-10" points="86.14 34.84 81.56 44 105.62 57.18 106.76 48.59 86.14 34.84"/></g></g></svg>